<svg width="87" height="22" viewBox="0 0 87 22" fill="none" xmlns="http://www.w3.org/2000/svg">
<path d="M10.504 1.428L10.576 1.446C10.876 1.626 11.134 1.83 11.35 2.058C11.578 2.274 11.782 2.508 11.962 2.76C12.154 3 12.304 3.264 12.412 3.552C12.868 4.656 12.472 5.892 11.224 7.26C10.696 7.836 10.102 8.328 9.442 8.736C9.61 8.856 9.766 8.946 9.91 9.006C10.066 9.054 10.282 9.156 10.558 9.312C10.834 9.456 11.014 9.738 11.098 10.158C11.182 10.566 11.158 11.028 11.026 11.544C10.906 12.06 10.678 12.594 10.342 13.146C10.018 13.686 9.592 14.172 9.064 14.604C7.864 15.6 6.472 16.02 4.888 15.864C4.66 15.864 4.516 15.846 4.456 15.81C4.396 15.774 4.348 15.744 4.312 15.72C4.276 15.696 4.198 15.678 4.078 15.666C3.778 15.906 3.436 16.056 3.052 16.116C2.668 16.176 2.302 16.146 1.954 16.026C1.618 15.906 1.33 15.702 1.09 15.414C0.862 15.126 0.748 14.748 0.748 14.28C0.784 13.968 0.844 13.722 0.928 13.542C0.892 13.434 0.874 13.302 0.874 13.146C1.282 10.974 1.666 9.312 2.026 8.16C2.758 5.868 3.55 4.14 4.402 2.976C5.098 1.992 6.064 1.356 7.3 1.068C8.488 0.791999 9.556 0.911999 10.504 1.428ZM4.906 13.992C5.05 13.956 5.17 13.95 5.266 13.974C5.374 13.986 5.5 13.98 5.644 13.956C5.992 13.92 6.46 13.704 7.048 13.308C7.42 12.936 7.618 12.57 7.642 12.21C7.666 11.85 7.612 11.622 7.48 11.526C7.348 11.418 7.168 11.364 6.94 11.364C6.724 11.364 6.478 11.4 6.202 11.472C5.938 11.532 5.68 11.568 5.428 11.58V11.616C5.368 11.856 5.308 12.066 5.248 12.246C5.188 12.426 5.134 12.6 5.086 12.768C4.978 13.164 4.894 13.572 4.834 13.992H4.906ZM8.254 4.632C7.894 4.584 7.504 4.866 7.084 5.478C6.82 5.862 6.616 6.444 6.472 7.224C6.724 7.116 6.97 7.026 7.21 6.954C7.462 6.87 7.696 6.78 7.912 6.684C8.44 6.456 8.818 6.18 9.046 5.856C9.31 5.544 9.394 5.28 9.298 5.064C9.154 4.872 8.92 4.698 8.596 4.542C8.5 4.626 8.386 4.656 8.254 4.632ZM7.984 4.56H8.038H7.984ZM15.0573 14.298C14.9853 14.55 14.9013 14.772 14.8053 14.964C14.7093 15.156 14.5653 15.336 14.3733 15.504C14.1813 15.672 13.9533 15.828 13.6893 15.972C13.4253 16.128 13.1733 16.236 12.9333 16.296C12.3813 16.416 12.0933 16.254 12.0693 15.81C12.0333 15.69 11.9553 15.618 11.8353 15.594C11.7273 15.582 11.6253 15.552 11.5293 15.504C11.2773 15.396 11.2053 15.102 11.3133 14.622C11.5053 13.962 11.7153 13.164 11.9433 12.228C12.1713 11.28 12.4653 10.242 12.8253 9.114C13.6773 6.378 14.7333 3.912 15.9933 1.716C16.0773 1.608 16.1733 1.47 16.2813 1.302C16.3893 1.122 16.5273 0.959999 16.6953 0.815999C17.1153 0.431999 17.6313 0.341999 18.2433 0.545999C18.2313 0.702 18.2673 0.845999 18.3513 0.977999C18.4353 1.098 18.5313 1.224 18.6393 1.356C18.9153 1.668 19.0413 1.95 19.0173 2.202C17.7453 5.214 16.5993 8.58 15.5793 12.3C15.4593 12.732 15.3633 13.11 15.2913 13.434C15.2193 13.758 15.1413 14.046 15.0573 14.298ZM19.1603 7.098C19.4963 6.774 19.8683 6.588 20.2763 6.54C20.6963 6.48 21.0623 6.522 21.3743 6.666C21.6983 6.81 21.9323 7.044 22.0763 7.368C22.2323 7.68 22.2143 8.04 22.0223 8.448C21.6143 9.048 21.2903 9.696 21.0503 10.392C20.8103 11.088 20.5883 11.79 20.3843 12.498C21.4883 11.802 22.4123 10.764 23.1563 9.384C23.3723 8.976 23.6063 8.562 23.8583 8.142L24.1283 7.638L24.6683 6.774C24.7403 6.546 24.8663 6.402 25.0463 6.342C25.2263 6.27 25.4183 6.234 25.6223 6.234C25.8383 6.234 26.0543 6.24 26.2703 6.252C26.4863 6.252 26.6843 6.192 26.8643 6.072C27.0443 5.952 27.2543 5.91 27.4943 5.946C27.7463 5.97 27.9683 6.048 28.1603 6.18C28.3643 6.312 28.5143 6.474 28.6103 6.666C28.7183 6.846 28.7303 7.026 28.6463 7.206C28.1423 8.286 27.4523 10.296 26.5763 13.236C26.3723 13.896 26.1803 14.448 26.0003 14.892C25.7003 15.264 25.3223 15.516 24.8663 15.648C24.4103 15.78 23.9783 15.816 23.5703 15.756C23.1743 15.708 22.8563 15.57 22.6163 15.342C22.3763 15.126 22.3223 14.85 22.4543 14.514C22.1183 14.79 21.7703 15.042 21.4103 15.27C21.0503 15.498 20.6123 15.648 20.0963 15.72C19.5923 15.792 19.1063 15.768 18.6383 15.648C18.1703 15.54 17.7683 15.324 17.4323 15C17.1083 14.676 16.9343 14.244 16.9103 13.704C16.8383 11.808 17.5883 9.606 19.1603 7.098ZM34.0183 12.336C33.7903 12.444 33.5683 12.528 33.3523 12.588C33.1363 12.648 32.8843 12.708 32.5963 12.768C31.8403 12.924 31.2943 13.014 30.9583 13.038C30.9943 13.158 31.1743 13.302 31.4983 13.47C31.7143 13.506 31.9483 13.476 32.2003 13.38C32.4643 13.272 32.7343 13.176 33.0103 13.092C33.2983 12.996 33.5743 12.942 33.8383 12.93C34.1143 12.918 34.3723 13.02 34.6123 13.236C34.7083 13.452 34.7863 13.578 34.8463 13.614C34.9063 13.65 34.9603 13.668 35.0083 13.668C35.0563 13.668 35.1103 13.686 35.1703 13.722C35.2303 13.758 35.3143 13.896 35.4223 14.136C35.5423 14.376 35.5123 14.604 35.3323 14.82C35.1643 15.036 34.9003 15.222 34.5403 15.378C34.1803 15.534 33.7603 15.66 33.2803 15.756C32.8003 15.852 32.3203 15.918 31.8403 15.954C30.7603 16.038 29.9383 15.954 29.3743 15.702C28.5583 15.426 28.0303 14.88 27.7903 14.064C27.4783 12.984 27.6523 11.724 28.3123 10.284C28.6123 9.612 29.0863 8.892 29.7343 8.124C30.2983 7.452 30.9283 6.966 31.6243 6.666C32.4283 6.318 33.2683 6.156 34.1443 6.18C35.0803 6.204 35.7283 6.612 36.0883 7.404C36.2683 7.824 36.3043 8.412 36.1963 9.168C36.0043 10.152 35.7523 10.848 35.4403 11.256C35.1283 11.652 34.6543 12.012 34.0183 12.336ZM32.9743 9.492C32.3383 9.36 31.8403 9.72 31.4803 10.572C31.3723 10.8 31.2883 11.04 31.2283 11.292C31.6363 11.34 32.0683 11.112 32.5243 10.608C32.6923 10.404 32.8183 10.2 32.9023 9.996C32.9863 9.78 33.0103 9.612 32.9743 9.492ZM43.4493 14.406L43.3233 2.778C43.3233 2.49 43.4373 2.244 43.6653 2.04C43.9053 1.824 44.1753 1.674 44.4753 1.59C44.7753 1.506 45.0573 1.494 45.3213 1.554C45.5853 1.614 45.7533 1.77 45.8253 2.022C46.0533 2.478 46.2093 3.108 46.2933 3.912C46.4493 5.412 46.5273 6.708 46.5273 7.8C46.6473 7.992 46.7973 8.082 46.9773 8.07C47.4933 6.81 48.0633 5.598 48.6873 4.434C49.3113 3.27 49.7133 2.526 49.8933 2.202C50.0733 1.866 50.2893 1.632 50.5413 1.5C50.7933 1.368 51.0633 1.284 51.3513 1.248C51.9753 1.176 52.5633 1.284 53.1153 1.572C53.5353 1.716 53.7813 1.962 53.8533 2.31C54.1293 2.862 53.9433 3.498 53.2953 4.218C52.5393 5.418 51.7773 6.744 51.0093 8.196C49.5453 10.992 48.6153 12.714 48.2193 13.362C47.8233 14.01 47.5353 14.472 47.3553 14.748C47.1753 15.012 46.9713 15.234 46.7433 15.414C46.3353 15.738 45.8433 15.87 45.2673 15.81C44.2593 15.774 43.6713 15.456 43.5033 14.856C43.4673 14.688 43.4493 14.538 43.4493 14.406ZM53.667 7.206C53.823 6.81 54.195 6.54 54.783 6.396C55.335 6.252 55.851 6.27 56.331 6.45C56.823 6.642 57.045 6.954 56.997 7.386C56.865 7.806 56.697 8.322 56.493 8.934C56.301 9.534 56.115 10.152 55.935 10.788C55.455 12.42 55.179 13.572 55.107 14.244C54.927 15.324 54.627 15.906 54.207 15.99C54.087 16.014 53.973 16.032 53.865 16.044C53.601 16.056 53.433 16.128 53.361 16.26C53.289 16.392 53.169 16.488 53.001 16.548C52.833 16.62 52.647 16.65 52.443 16.638C52.251 16.638 52.053 16.59 51.849 16.494C51.645 16.41 51.471 16.284 51.327 16.116C50.991 15.708 50.925 15.162 51.129 14.478C51.321 13.17 51.807 11.508 52.587 9.492C52.959 8.496 53.319 7.734 53.667 7.206ZM57.069 4.506C56.481 4.626 56.001 4.59 55.629 4.398C55.269 4.206 55.059 3.978 54.999 3.714C54.939 3.438 55.023 3.156 55.251 2.868C55.515 2.508 55.911 2.274 56.439 2.166C56.679 2.142 56.853 2.13 56.961 2.13C57.069 2.13 57.201 2.154 57.357 2.202C57.753 2.238 58.011 2.412 58.131 2.724C58.299 2.988 58.311 3.288 58.167 3.624C58.035 3.96 57.669 4.254 57.069 4.506ZM60.0802 7.206C60.8842 6.882 61.4242 6.876 61.7002 7.188C61.8442 7.356 61.9162 7.59 61.9162 7.89V7.98C62.3602 7.464 63.1342 7.032 64.2382 6.684C65.4022 6.324 66.3622 6.222 67.1182 6.378C68.1022 6.582 68.6542 7.224 68.7742 8.304C68.8702 9.216 68.6602 10.374 68.1442 11.778C67.9762 12.138 67.8442 12.432 67.7482 12.66C67.6642 12.876 67.5862 13.074 67.5142 13.254C67.3582 13.59 67.1122 13.992 66.7762 14.46C66.5842 14.82 66.2842 15.096 65.8762 15.288C65.4802 15.48 65.0842 15.588 64.6882 15.612C64.3042 15.648 63.9862 15.588 63.7342 15.432C63.4822 15.288 63.4102 15.054 63.5182 14.73C63.7942 13.986 64.0222 13.308 64.2022 12.696C64.3822 12.084 64.5682 11.562 64.7602 11.13C64.9402 10.518 64.9642 10.134 64.8322 9.978C64.7242 9.858 64.5382 9.876 64.2742 10.032C64.0462 10.176 63.8842 10.344 63.7882 10.536C63.5722 10.692 63.1642 11.316 62.5642 12.408C62.3962 12.708 62.2282 13.008 62.0602 13.308C61.9042 13.596 61.7542 13.866 61.6102 14.118C61.4782 14.37 61.3582 14.58 61.2502 14.748C61.1542 14.916 61.0642 15.024 60.9802 15.072C60.9082 15.132 60.8422 15.168 60.7822 15.18C60.7342 15.204 60.6922 15.228 60.6562 15.252C60.6202 15.276 60.5902 15.354 60.5662 15.486C60.5182 15.762 60.2302 15.966 59.7022 16.098C58.8502 16.314 58.0822 16.278 57.3982 15.99C57.1702 15.894 56.9902 15.762 56.8582 15.594C56.5822 15.042 57.0562 13.164 58.2802 9.96C58.7122 8.832 58.9942 8.16 59.1262 7.944C59.4262 7.488 59.6182 7.23 59.7022 7.17C59.7982 7.11 59.9242 7.122 60.0802 7.206ZM69.4644 9.492C69.4764 9 69.4404 8.598 69.3564 8.286C69.2724 7.974 69.2724 7.716 69.3564 7.512C69.4524 7.296 69.5964 7.146 69.7884 7.062C69.9924 6.978 70.2264 6.954 70.4904 6.99C70.7664 7.014 71.0364 7.092 71.3004 7.224C71.9364 7.512 72.3804 7.92 72.6324 8.448C72.6924 8.712 72.6684 9.042 72.5604 9.438C72.4644 9.822 72.3504 10.224 72.2184 10.644C72.0864 11.052 71.9604 11.454 71.8404 11.85C71.7204 12.234 71.6724 12.558 71.6964 12.822C72.0084 12.63 72.2784 12.342 72.5064 11.958C72.7464 11.574 72.9624 11.166 73.1544 10.734C73.3584 10.29 73.5444 9.852 73.7124 9.42C73.8924 8.988 74.0604 8.646 74.2164 8.394C74.3844 8.142 74.5164 7.944 74.6124 7.8C74.7084 7.644 74.8044 7.506 74.9004 7.386C75.0564 7.182 75.2604 6.984 75.5124 6.792C75.5844 6.732 75.8004 6.744 76.1604 6.828C76.5324 6.9 76.8024 6.954 76.9704 6.99C77.1504 7.014 77.2704 7.002 77.3304 6.954L77.5824 6.774C77.9184 6.606 78.3144 6.612 78.7704 6.792C79.2144 6.984 79.4484 7.278 79.4724 7.674C79.4604 7.686 79.4544 7.71 79.4544 7.746L79.5084 7.764L79.3824 7.872C79.2984 8.028 79.2324 8.136 79.1844 8.196C79.1484 8.244 79.0644 8.322 78.9324 8.43C78.1164 9.306 77.1804 10.932 76.1244 13.308C75.8604 13.896 75.6204 14.424 75.4044 14.892C75.7284 15.096 75.9744 15.36 76.1424 15.684C76.3104 16.008 76.3104 16.362 76.1424 16.746C75.1464 17.538 74.5884 18.282 74.4684 18.978C74.4084 19.41 74.3304 19.716 74.2344 19.896C74.1504 20.076 74.0124 20.25 73.8204 20.418C73.1724 20.898 72.4104 20.778 71.5344 20.058C70.9104 19.434 70.8804 18.654 71.4444 17.718C71.5884 17.466 71.7264 17.202 71.8584 16.926C72.0504 16.518 72.3564 15.912 72.7764 15.108C71.7444 15.708 70.7964 15.696 69.9324 15.072C69.3204 14.604 69.1044 13.542 69.2844 11.886C69.4044 10.782 69.4644 9.984 69.4644 9.492ZM82.61 14.298C82.538 14.55 82.454 14.772 82.358 14.964C82.262 15.156 82.118 15.336 81.926 15.504C81.734 15.672 81.506 15.828 81.242 15.972C80.978 16.128 80.726 16.236 80.486 16.296C79.934 16.416 79.646 16.254 79.622 15.81C79.586 15.69 79.508 15.618 79.388 15.594C79.28 15.582 79.178 15.552 79.082 15.504C78.83 15.396 78.758 15.102 78.866 14.622C79.058 13.962 79.268 13.164 79.496 12.228C79.724 11.28 80.018 10.242 80.378 9.114C81.23 6.378 82.286 3.912 83.546 1.716C83.63 1.608 83.726 1.47 83.834 1.302C83.942 1.122 84.08 0.959999 84.248 0.815999C84.668 0.431999 85.184 0.341999 85.796 0.545999C85.784 0.702 85.82 0.845999 85.904 0.977999C85.988 1.098 86.084 1.224 86.192 1.356C86.468 1.668 86.594 1.95 86.57 2.202C85.298 5.214 84.152 8.58 83.132 12.3C83.012 12.732 82.916 13.11 82.844 13.434C82.772 13.758 82.694 14.046 82.61 14.298Z" fill="white"/>
</svg>
