<svg width="12" height="12" viewBox="0 0 12 12" fill="none" xmlns="http://www.w3.org/2000/svg">
<path d="M6.00008 4.41675C5.14423 4.41675 4.41675 5.14423 4.41675 6.00008C4.41675 6.85594 5.14423 7.58342 6.00008 7.58342C6.85594 7.58342 7.58342 6.85594 7.58342 6.00008C7.58342 5.14423 6.85594 4.41675 6.00008 4.41675Z" fill="white"/>
<path d="M8.02955 1.25H4.01364C2.45909 1.25 1.25 2.45909 1.25 3.97045V7.98636C1.25 9.54091 2.45909 10.75 4.01364 10.75H8.02955C9.54091 10.75 10.75 9.54091 10.75 7.98636V3.97045C10.75 2.45909 9.54091 1.25 8.02955 1.25ZM6 8.50455C4.61818 8.50455 3.53864 7.38182 3.53864 6.04318C3.53864 4.70455 4.61818 3.53864 6 3.53864C7.38182 3.53864 8.46136 4.66136 8.46136 6C8.46136 7.33864 7.38182 8.50455 6 8.50455ZM8.54773 4.05682C8.24545 4.05682 7.98636 3.79773 7.98636 3.49545C7.98636 3.19318 8.24545 2.93409 8.54773 2.93409C8.85 2.93409 9.10909 3.19318 9.10909 3.49545C9.10909 3.79773 8.85 4.05682 8.54773 4.05682Z" fill="white"/>
</svg>
