<svg width="24" height="25" viewBox="0 0 24 25" fill="none" xmlns="http://www.w3.org/2000/svg">
<path d="M11.9999 9.3335C10.2882 9.3335 8.83325 10.7885 8.83325 12.5002C8.83325 14.2119 10.2882 15.6668 11.9999 15.6668C13.7116 15.6668 15.1666 14.2119 15.1666 12.5002C15.1666 10.7885 13.7116 9.3335 11.9999 9.3335Z" fill="#A9A9A9"/>
<path d="M16.0591 3H8.02727C4.91818 3 2.5 5.41818 2.5 8.44091V16.4727C2.5 19.5818 4.91818 22 8.02727 22H16.0591C19.0818 22 21.5 19.5818 21.5 16.4727V8.44091C21.5 5.41818 19.0818 3 16.0591 3ZM12 17.5091C9.23636 17.5091 7.07727 15.2636 7.07727 12.5864C7.07727 9.90909 9.23636 7.57727 12 7.57727C14.7636 7.57727 16.9227 9.82273 16.9227 12.5C16.9227 15.1773 14.7636 17.5091 12 17.5091ZM17.0955 8.61364C16.4909 8.61364 15.9727 8.09545 15.9727 7.49091C15.9727 6.88636 16.4909 6.36818 17.0955 6.36818C17.7 6.36818 18.2182 6.88636 18.2182 7.49091C18.2182 8.09545 17.7 8.61364 17.0955 8.61364Z" fill="#A9A9A9"/>
</svg>
