<svg width="24" height="25" viewBox="0 0 24 25" fill="none" xmlns="http://www.w3.org/2000/svg">
<path d="M21.15 4.14124L20.33 4.96124L19.38 4.00124C18.99 3.61124 18.36 3.61124 17.96 4.00124L17 4.96124L16.04 4.00124C15.65 3.61124 15.01 3.61124 14.62 4.00124L13.67 4.96124L12.71 4.00124C12.32 3.61124 11.69 3.61124 11.3 4.00124L10.34 4.96124L9.38 4.00124C8.99 3.61124 8.36 3.61124 7.96 4.00124L7 4.96124L6.04 4.00124C5.65 3.61124 5.01 3.61124 4.62 4.00124L3.67 4.96124L2.85 4.14124C2.54 3.83124 2 4.05124 2 4.50124V19.2912C2 20.3912 2.9 21.2912 4 21.2912H20C21.1 21.2912 22 20.3912 22 19.2912V4.50124C22 4.05124 21.46 3.83124 21.15 4.14124ZM11 19.2912H4V13.2912H11V19.2912ZM20 19.2912H13V17.2912H20V19.2912ZM20 15.2912H13V13.2912H20V15.2912ZM20 11.2912H4V8.29124H20V11.2912Z" fill="#A9A9A9"/>
</svg>
