<svg width="12" height="12" viewBox="0 0 12 12" fill="none" xmlns="http://www.w3.org/2000/svg">
<path d="M4.2 9.5C7.45 9.5 9.25 6.8 9.25 4.45C9.25 4.35 9.25 4.3 9.25 4.2C9.6 3.95 9.9 3.65 10.15 3.3C9.85 3.45 9.5 3.55 9.15 3.6C9.5 3.4 9.8 3.05 9.95 2.6C9.6 2.8 9.25 2.95 8.85 3.05C8.45 2.7 7.95 2.5 7.45 2.5C6.45 2.5 5.7 3.3 5.7 4.25C5.7 4.4 5.7 4.5 5.75 4.65C4.25 4.6 2.95 3.9 2.1 2.8C1.95 3.1 1.85 3.4 1.85 3.7C1.85 4.3 2.15 4.85 2.65 5.15C2.35 5.15 2.1 5.05 1.85 4.95C1.85 5.8 2.45 6.5 3.25 6.7C3.1 6.75 2.95 6.8 2.8 6.8C2.7 6.8 2.6 6.8 2.45 6.75C2.65 7.45 3.35 7.95 4.1 8C3.5 8.45 2.75 8.75 1.9 8.75C1.75 8.75 1.6 8.75 1.5 8.75C2.3 9.2 3.2 9.5 4.2 9.5Z" fill="white"/>
</svg>
